<?xml version="1.0" encoding="utf-8"?>
<svg viewBox="-40.648 3820.012 1461 330" xmlns="http://www.w3.org/2000/svg">
  <defs>
    <mask id="mask-1">
      <g transform="matrix(1.071659, 0, 0, 1.000882, 0, -217.303223)">
        <path id="path-9" style="fill-rule: nonzero; paint-order: fill markers; stroke-linecap: round; stroke-miterlimit: 8; stroke-width: 13px; stroke-dashoffset: 27px; fill: rgb(246, 246, 246); stroke: rgba(220, 220, 220, 0.26);" d="M -365.958 3821.794 C -362.829 3847.24 -338.616 3867.006 -309.187 3867.006 C -301.581 3867.006 -294.345 3865.665 -287.702 3863.267 C -275.474 3890.726 -245.404 3910.164 -210.198 3910.164 C -189.468 3910.164 -170.534 3903.413 -155.963 3892.28 C -138.699 3905.738 -116.201 3913.93 -91.475 3913.93 C -60.65 3913.93 -33.194 3901.257 -15.238 3881.477 C -2.192 3896.52 18.267 3906.266 41.325 3906.266 C 71.54 3906.266 97.358 3889.54 107.804 3865.965 C 119.132 3870.202 131.633 3872.543 144.71 3872.543 C 197.422 3872.543 240.185 3834.553 240.185 3787.642 C 240.185 3740.763 197.422 3702.743 144.71 3702.743 C 136.975 3702.743 129.498 3703.657 122.278 3705.199 C 114.159 3662.612 72.582 3630.131 22.375 3630.131 C -10.488 3630.131 -39.661 3644.089 -58.162 3665.638 C -69.009 3655.19 -84.461 3648.626 -101.696 3648.626 C -127.113 3648.626 -148.711 3662.856 -157.152 3682.82 C -168.48 3645.601 -206.621 3618.157 -252.064 3618.157 C -305 3618.157 -348.066 3655.39 -350.249 3702.03 C -358.257 3699.161 -366.969 3697.52 -376.116 3697.52 C -414.595 3697.52 -445.772 3725.52 -445.772 3760.028 C -445.772 3794.564 -414.595 3822.565 -376.116 3822.565 C -372.65 3822.565 -369.28 3822.252 -365.958 3821.794" transform="matrix(-0.987113, -0.160025, 0.160025, -0.987113, -806.923285, 7467.104258)"/>
        <path id="path-10" style="fill-rule: nonzero; paint-order: fill markers; stroke-linecap: round; stroke-miterlimit: 8; stroke-width: 13px; stroke-dashoffset: 27px; fill: rgb(246, 246, 246); stroke: rgba(220, 220, 220, 0.26);" d="M 1046.848 3966.077 C 1049.977 3991.523 1074.19 4011.289 1103.619 4011.289 C 1111.225 4011.289 1118.461 4009.948 1125.104 4007.55 C 1137.332 4035.009 1167.402 4054.447 1202.608 4054.447 C 1223.338 4054.447 1242.272 4047.696 1256.843 4036.563 C 1274.107 4050.021 1296.605 4058.213 1321.331 4058.213 C 1352.155 4058.213 1379.61 4045.54 1397.566 4025.76 C 1410.613 4040.803 1431.072 4050.549 1454.13 4050.549 C 1484.345 4050.549 1510.163 4033.823 1520.609 4010.248 C 1531.937 4014.485 1544.438 4016.826 1557.515 4016.826 C 1610.229 4016.826 1652.992 3978.836 1652.992 3931.925 C 1652.992 3885.045 1610.229 3847.025 1557.515 3847.025 C 1549.78 3847.025 1542.303 3847.939 1535.083 3849.481 C 1526.964 3806.894 1485.387 3774.413 1435.18 3774.413 C 1402.317 3774.413 1373.143 3788.371 1354.643 3809.92 C 1343.796 3799.472 1328.344 3792.908 1311.11 3792.908 C 1285.693 3792.908 1264.095 3807.138 1255.654 3827.102 C 1244.326 3789.883 1206.185 3762.439 1160.742 3762.439 C 1107.806 3762.439 1064.74 3799.672 1062.557 3846.312 C 1054.549 3843.443 1045.837 3841.802 1036.69 3841.802 C 998.211 3841.802 967.034 3869.802 967.034 3904.311 C 967.034 3938.847 998.211 3966.848 1036.69 3966.848 C 1040.156 3966.848 1043.526 3966.535 1046.848 3966.077" transform="matrix(-0.561623, 0.827394, -0.827394, -0.561623, 5281.124188, 5022.55726)"/>
        <path id="path-11" style="fill-rule: nonzero; paint-order: fill markers; stroke-linecap: round; stroke-miterlimit: 8; stroke-width: 13px; stroke-dashoffset: 27px; fill: rgb(246, 246, 246); stroke: rgba(220, 220, 220, 0.26);" d="M 718.3 3948.924 C 718.3 3988.404 743.515 4020.413 774.635 4020.413 C 789.063 4020.413 802.182 4013.47 812.144 4002.158 C 821.182 4044.041 859.248 4075.481 904.855 4075.481 C 935.582 4075.481 962.816 4061.142 980.134 4039.046 C 989.005 4069.541 1017.739 4091.901 1051.872 4091.901 C 1078.443 4091.901 1101.72 4078.338 1114.939 4057.963 C 1126.68 4068.86 1141.906 4075.481 1158.588 4075.481 C 1194.646 4075.481 1223.975 4044.703 1225.607 4006.091 C 1235.215 4015.059 1247.124 4020.413 1260.095 4020.413 C 1291.822 4020.413 1317.553 3988.574 1317.553 3949.321 C 1317.553 3910.068 1291.822 3878.23 1260.095 3878.23 C 1248.588 3878.23 1237.892 3882.467 1228.909 3889.656 C 1231.658 3879.649 1233.236 3868.922 1233.236 3857.685 C 1233.236 3804.584 1199.815 3761.528 1158.614 3761.528 C 1130.149 3761.528 1105.43 3782.054 1092.843 3812.228 C 1083.368 3766.768 1045.261 3732.756 999.635 3732.756 C 960.435 3732.756 926.791 3757.878 912.068 3793.744 C 898.36 3773.996 878.681 3761.528 856.731 3761.528 C 815.304 3761.528 781.728 3805.682 781.728 3860.146 C 781.728 3866.349 782.22 3872.404 783.05 3878.287 C 780.291 3877.776 777.495 3877.416 774.635 3877.416 C 743.515 3877.416 718.3 3909.425 718.3 3948.924" transform="matrix(-0.937833, 0.347088, -0.347088, -0.937833, 3330.492662, 7228.127975)"/>
        <path id="path-12" style="fill-rule: nonzero; paint-order: fill markers; stroke-linecap: round; stroke-miterlimit: 8; stroke-width: 13px; stroke-dashoffset: 27px; fill: rgb(246, 246, 246); stroke: rgba(220, 220, 220, 0.26);" d="M 593.312 4059.37 C 595.871 4082.657 615.574 4100.755 639.536 4100.755 C 645.729 4100.755 651.621 4099.518 657.021 4097.322 C 666.985 4122.456 691.457 4140.257 720.126 4140.257 C 737.003 4140.257 752.417 4134.073 764.28 4123.885 C 778.336 4136.199 796.642 4143.706 816.776 4143.706 C 841.874 4143.706 864.221 4132.106 878.836 4113.992 C 889.459 4127.768 906.11 4136.686 924.886 4136.686 C 949.48 4136.686 970.504 4121.376 979.003 4099.796 C 988.234 4103.681 998.405 4105.823 1009.049 4105.823 C 1051.965 4105.823 1086.782 4071.039 1086.782 4028.106 C 1086.782 3985.189 1051.965 3950.389 1009.049 3950.389 C 1002.76 3950.389 996.665 3951.224 990.795 3952.636 C 984.176 3913.656 950.334 3883.923 909.455 3883.923 C 882.702 3883.923 858.961 3896.707 843.895 3916.425 C 835.065 3906.862 822.49 3900.853 808.451 3900.853 C 787.759 3900.853 770.184 3913.881 763.305 3932.153 C 754.09 3898.084 723.033 3872.968 686.039 3872.968 C 642.94 3872.968 607.886 3907.054 606.111 3949.743 C 599.594 3947.114 592.497 3945.615 585.045 3945.615 C 553.722 3945.615 528.338 3971.236 528.338 4002.833 C 528.338 4034.446 553.722 4060.067 585.045 4060.067 C 587.87 4060.067 590.613 4059.789 593.312 4059.37" transform="matrix(-0.975873, -0.218337, 0.218337, -0.975873, 258.33402, 7972.662592)"/>
        <path id="path-13" style="fill-rule: nonzero; paint-order: fill markers; stroke-linecap: round; stroke-miterlimit: 8; stroke-width: 13px; stroke-dashoffset: 27px; fill: rgb(246, 246, 246); stroke: rgba(220, 220, 220, 0.26);" d="M 879.746 4017.844 C 882.535 4042.207 904.013 4061.141 930.134 4061.141 C 936.885 4061.141 943.307 4059.847 949.194 4057.55 C 960.055 4083.845 986.732 4102.469 1017.983 4102.469 C 1036.381 4102.469 1053.183 4095.999 1066.114 4085.34 C 1081.436 4098.224 1101.391 4106.077 1123.339 4106.077 C 1150.698 4106.077 1175.058 4093.941 1190.989 4074.99 C 1202.569 4089.403 1220.72 4098.733 1241.187 4098.733 C 1267.997 4098.733 1290.915 4082.715 1300.179 4060.138 C 1310.242 4064.203 1321.329 4066.444 1332.932 4066.444 C 1379.714 4066.444 1417.667 4030.052 1417.667 3985.135 C 1417.667 3940.234 1379.714 3903.826 1332.932 3903.826 C 1326.076 3903.826 1319.432 3904.7 1313.034 3906.177 C 1305.818 3865.395 1268.928 3834.288 1224.366 3834.288 C 1195.203 3834.288 1169.324 3847.663 1152.901 3868.292 C 1143.275 3858.287 1129.567 3852.001 1114.264 3852.001 C 1091.708 3852.001 1072.55 3865.631 1065.051 3884.747 C 1055.007 3849.104 1021.152 3822.827 980.826 3822.827 C 933.844 3822.827 895.633 3858.488 893.698 3903.15 C 886.594 3900.4 878.857 3898.831 870.734 3898.831 C 836.589 3898.831 808.919 3925.636 808.919 3958.694 C 808.919 3991.768 836.589 4018.573 870.734 4018.573 C 873.813 4018.573 876.804 4018.282 879.746 4017.844" transform="matrix(-0.975928, 0.218094, -0.218094, -0.975928, 2543.72098, 7572.228597)"/>
        <path id="path-14" style="fill-rule: nonzero; paint-order: fill markers; stroke-linecap: round; stroke-miterlimit: 8; stroke-width: 13px; stroke-dashoffset: 27px; fill: rgb(246, 246, 246); stroke: rgba(220, 220, 220, 0.26);" d="M 372.074 4090.259 C 374.633 4113.546 394.336 4131.644 418.298 4131.644 C 424.491 4131.644 430.383 4130.407 435.783 4128.211 C 445.747 4153.345 470.219 4171.146 498.888 4171.146 C 515.765 4171.146 531.179 4164.962 543.041 4154.774 C 557.097 4167.088 575.403 4174.595 595.537 4174.595 C 620.635 4174.595 642.982 4162.995 657.597 4144.881 C 668.22 4158.657 684.871 4167.575 703.647 4167.575 C 728.241 4167.575 749.265 4152.265 757.764 4130.685 C 766.995 4134.57 777.166 4136.712 787.81 4136.712 C 830.726 4136.712 865.543 4101.928 865.543 4058.995 C 865.543 4016.078 830.726 3981.278 787.81 3981.278 C 781.521 3981.278 775.426 3982.113 769.556 3983.525 C 762.937 3944.545 729.095 3914.812 688.216 3914.812 C 661.463 3914.812 637.722 3927.596 622.656 3947.314 C 613.826 3937.751 601.251 3931.742 587.212 3931.742 C 566.52 3931.742 548.945 3944.77 542.066 3963.042 C 532.852 3928.973 501.795 3903.857 464.801 3903.857 C 421.702 3903.857 386.648 3937.943 384.873 3980.632 C 378.356 3978.003 371.259 3976.504 363.807 3976.504 C 332.484 3976.504 307.1 4002.125 307.1 4033.722 C 307.1 4065.335 332.484 4090.956 363.807 4090.956 C 366.632 4090.956 369.375 4090.678 372.074 4090.259" transform="matrix(-0.975928, 0.218094, -0.218094, -0.975928, 1561.480789, 7833.545115)"/>
        <path id="path-15" style="fill-rule: nonzero; paint-order: fill markers; stroke-linecap: round; stroke-miterlimit: 8; stroke-width: 13px; stroke-dashoffset: 27px; fill: rgb(246, 246, 246); stroke: rgba(220, 220, 220, 0.26);" d="M 95.567 4228.834 C 98.607 4251.918 122.016 4269.858 150.486 4269.858 C 157.844 4269.858 164.844 4268.632 171.26 4266.455 C 183.098 4291.371 212.174 4309.017 246.236 4309.017 C 266.287 4309.017 284.601 4302.886 298.694 4292.787 C 315.394 4304.994 337.144 4312.435 361.065 4312.435 C 390.884 4312.435 417.435 4300.937 434.799 4282.98 C 447.421 4296.636 467.204 4305.477 489.512 4305.477 C 518.732 4305.477 543.711 4290.3 553.81 4268.907 C 564.777 4272.758 576.861 4274.883 589.508 4274.883 C 640.497 4274.883 681.863 4240.401 681.863 4197.842 C 681.863 4155.299 640.497 4120.803 589.508 4120.803 C 582.036 4120.803 574.794 4121.63 567.82 4123.03 C 559.956 4084.39 519.747 4054.916 471.178 4054.916 C 439.393 4054.916 411.186 4067.589 393.286 4087.135 C 382.795 4077.655 367.854 4071.699 351.174 4071.699 C 326.59 4071.699 305.709 4084.613 297.536 4102.726 C 286.589 4068.954 249.689 4044.056 205.737 4044.056 C 154.53 4044.056 112.882 4077.846 110.773 4120.162 C 103.03 4117.556 94.598 4116.07 85.745 4116.07 C 48.529 4116.07 18.37 4141.468 18.37 4172.79 C 18.37 4204.127 48.529 4229.525 85.745 4229.525 C 89.101 4229.525 92.36 4229.249 95.567 4228.834" transform="matrix(0.991058, -0.133434, 0.133434, 0.991058, -552.117795, 46.044083)"/>
        <path id="path-16" style="fill-rule: nonzero; paint-order: fill markers; stroke-linecap: round; stroke-miterlimit: 8; stroke-width: 13px; stroke-dashoffset: 27px; fill: rgb(246, 246, 246); stroke: rgba(220, 220, 220, 0.26);" d="M 986.163 4119.239 C 988.722 4142.526 1008.425 4160.624 1032.387 4160.624 C 1038.58 4160.624 1044.472 4159.387 1049.872 4157.191 C 1059.836 4182.325 1084.308 4200.126 1112.977 4200.126 C 1129.855 4200.126 1145.269 4193.942 1157.131 4183.754 C 1171.187 4196.068 1189.493 4203.575 1209.627 4203.575 C 1234.725 4203.575 1257.073 4191.975 1271.688 4173.861 C 1282.311 4187.637 1298.962 4196.555 1317.738 4196.555 C 1342.332 4196.555 1363.356 4181.245 1371.855 4159.665 C 1381.086 4163.55 1391.257 4165.692 1401.901 4165.692 C 1444.817 4165.692 1479.634 4130.908 1479.634 4087.975 C 1479.634 4045.058 1444.817 4010.258 1401.901 4010.258 C 1395.612 4010.258 1389.517 4011.093 1383.647 4012.505 C 1377.028 3973.524 1343.186 3943.791 1302.307 3943.791 C 1275.554 3943.791 1251.813 3956.575 1236.746 3976.293 C 1227.916 3966.73 1215.341 3960.721 1201.302 3960.721 C 1180.61 3960.721 1163.035 3973.749 1156.156 3992.021 C 1146.942 3957.952 1115.884 3932.836 1078.89 3932.836 C 1035.791 3932.836 1000.737 3966.922 998.962 4009.612 C 992.445 4006.983 985.348 4005.484 977.896 4005.484 C 946.572 4005.484 921.188 4031.105 921.188 4062.702 C 921.188 4094.315 946.572 4119.936 977.896 4119.936 C 980.721 4119.936 983.464 4119.658 986.163 4119.239" transform="matrix(-0.890367, 0.455244, -0.455244, -0.890367, 3655.012543, 7183.641722)"/>
        <path id="path-17" style="fill-rule: nonzero; paint-order: fill markers; stroke-linecap: round; stroke-miterlimit: 8; stroke-width: 13px; stroke-dashoffset: 27px; fill: rgb(246, 246, 246); stroke: rgba(220, 220, 220, 0.26);" d="M 1386.948 4189.436 C 1389.659 4217.22 1410.533 4238.813 1435.919 4238.813 C 1442.48 4238.813 1448.722 4237.337 1454.443 4234.717 C 1464.999 4264.705 1490.926 4285.944 1521.298 4285.944 C 1539.178 4285.944 1555.508 4278.566 1568.075 4266.41 C 1582.966 4281.102 1602.36 4290.059 1623.691 4290.059 C 1650.28 4290.059 1673.955 4276.219 1689.438 4254.607 C 1700.693 4271.043 1718.333 4281.683 1738.225 4281.683 C 1764.28 4281.683 1786.554 4263.417 1795.558 4237.669 C 1805.337 4242.304 1816.113 4244.86 1827.389 4244.86 C 1872.856 4244.86 1909.742 4203.358 1909.742 4152.134 C 1909.742 4100.929 1872.856 4059.408 1827.389 4059.408 C 1820.727 4059.408 1814.269 4060.404 1808.051 4062.089 C 1801.038 4015.581 1765.185 3980.106 1721.877 3980.106 C 1693.534 3980.106 1668.382 3995.359 1652.421 4018.885 C 1643.066 4007.475 1629.744 4000.305 1614.871 4000.305 C 1592.949 4000.305 1574.33 4015.849 1567.042 4037.65 C 1557.281 3997.002 1524.378 3967.035 1485.186 3967.035 C 1439.525 3967.035 1402.388 4007.704 1400.508 4058.637 C 1393.604 4055.501 1386.085 4053.712 1378.19 4053.712 C 1345.006 4053.712 1318.113 4084.281 1318.113 4121.98 C 1318.113 4159.698 1345.006 4190.267 1378.19 4190.267 C 1381.183 4190.267 1384.089 4189.936 1386.948 4189.436" transform="matrix(-0.975928, 0.218094, -0.218094, -0.975928, 3581.974239, 7775.161431)"/>
      </g>
    </mask>
  </defs>
  <rect y="3823.966" width="1463.035" height="330" style="fill: rgb(216, 216, 216); mask: url(#mask-1);" transform="matrix(1, 0.000792, 0, 1, -41.665516, -7.130071)"/>
</svg>