<?xml version="1.0" encoding="utf-8"?>
<svg version="1.1" id="Capa_1" x="0px" y="0px" viewBox="0 0 512 512" style="enable-background:new 0 0 512 512;" xmlns="http://www.w3.org/2000/svg">
  <circle style="fill:#ec3237;" cx="264.25" cy="267" r="245"/>
  <path style="fill:#EEF6FF;" d="M 156.484 280.63 C 123.726 280.63 93.947 267.64 72.019 246.547 L 72.019 389.585 C 73.24 438.349 58.944 484.212 143.63 476.168 L 419.826 476.168 C 494.138 475.204 478.827 469.532 481 408.923 L 481 184.08 L 275.745 184.08 C 264.036 239.171 215.014 280.63 156.484 280.63 Z"/>
  <path style="fill:#D9EAFC;" d="M 72.018 246.547 L 71.712 420.452 C 73.299 453.245 79.524 466.665 91.814 470.13 L 90.845 261.414 C 84.085 257.079 77.782 252.091 72.018 246.547 Z"/>
  <path style="fill:#293D7C;" d="M 470.75 121.479 L 272.591 121.479 C 276.364 133.219 278.41 145.727 278.41 158.705 C 278.41 167.74 277.413 176.547 275.54 185.029 L 480.999 185.029 L 480.999 131.728 C 480.999 126.09 476.387 121.479 470.75 121.479 Z"/>
  <path style="fill:#E26693;" d="M 394.476 159.915 C 392.446 159.915 390.468 159.095 389.034 157.671 C 387.609 156.236 386.789 154.258 386.789 152.229 C 386.789 150.209 387.609 148.232 389.034 146.797 C 390.469 145.361 392.447 144.542 394.476 144.542 C 396.495 144.542 398.484 145.361 399.908 146.797 C 401.343 148.232 402.163 150.209 402.163 152.229 C 402.163 154.258 401.343 156.236 399.908 157.671 C 398.484 159.095 396.495 159.915 394.476 159.915 Z"/>
  <path style="fill:#FFAF10;" d="M 419.683 159.915 C 417.664 159.915 415.675 159.095 414.25 157.66 C 412.816 156.236 411.996 154.258 411.996 152.229 C 411.996 150.209 412.816 148.232 414.25 146.797 C 415.686 145.361 417.664 144.542 419.683 144.542 C 421.713 144.542 423.69 145.361 425.126 146.797 C 426.55 148.232 427.37 150.209 427.37 152.229 C 427.37 154.248 426.55 156.236 425.126 157.66 C 423.69 159.095 421.713 159.915 419.683 159.915 Z"/>
  <path style="fill:#37C47A;" d="M 444.902 159.915 C 442.873 159.915 440.894 159.095 439.47 157.671 C 438.034 156.236 437.215 154.258 437.215 152.229 C 437.215 150.209 438.034 148.232 439.47 146.797 C 440.894 145.361 442.873 144.542 444.902 144.542 C 446.921 144.542 448.91 145.361 450.334 146.797 C 451.77 148.232 452.589 150.209 452.589 152.229 C 452.589 154.258 451.77 156.236 450.334 157.671 C 448.899 159.095 446.92 159.915 444.902 159.915 Z"/>
  <path style="fill:#FFAF10;" d="M 158.162 421.677 C 158.162 423.243 156.881 424.524 155.315 424.524 L 124.593 424.524 C 123.027 424.524 121.747 423.243 121.747 421.677 L 121.747 372.748 C 121.747 371.183 123.027 369.902 124.593 369.902 L 155.315 369.902 C 156.881 369.902 158.162 371.183 158.162 372.748 L 158.162 421.677 Z"/>
  <path style="fill:#EF9614;" d="M 140.573 421.677 L 140.573 372.748 C 140.573 371.183 141.854 369.902 143.42 369.902 L 124.593 369.902 C 123.027 369.902 121.747 371.183 121.747 372.748 L 121.747 421.677 C 121.747 423.243 123.027 424.524 124.593 424.524 L 143.421 424.524 C 141.854 424.524 140.573 423.243 140.573 421.677 Z"/>
  <path style="fill:#FFAF10;" d="M 203.679 421.677 C 203.679 423.243 202.399 424.524 200.833 424.524 L 170.111 424.524 C 168.545 424.524 167.265 423.243 167.265 421.677 L 167.265 309.023 C 167.265 307.458 168.545 306.177 170.111 306.177 L 200.833 306.177 C 202.399 306.177 203.679 307.458 203.679 309.023 L 203.679 421.677 Z"/>
  <path style="fill:#EF9614;" d="M 186.092 421.677 L 186.092 309.023 C 186.092 307.458 187.373 306.177 188.939 306.177 L 170.111 306.177 C 168.545 306.177 167.265 307.458 167.265 309.023 L 167.265 421.677 C 167.265 423.243 168.545 424.524 170.111 424.524 L 188.939 424.524 C 187.373 424.524 186.092 423.243 186.092 421.677 Z"/>
  <path style="fill:#37C47A;" d="M 249.197 421.677 C 249.197 423.243 247.917 424.524 246.351 424.524 L 215.629 424.524 C 214.063 424.524 212.783 423.243 212.783 421.677 L 212.783 295.367 C 212.783 293.801 214.063 292.52 215.629 292.52 L 246.351 292.52 C 247.917 292.52 249.197 293.801 249.197 295.367 L 249.197 421.677 Z"/>
  <path style="fill:#02AF8E;" d="M 231.61 421.677 L 231.61 295.367 C 231.61 293.801 232.891 292.52 234.457 292.52 L 215.629 292.52 C 214.063 292.52 212.783 293.801 212.783 295.367 L 212.783 421.676 C 212.783 423.242 214.063 424.523 215.629 424.523 L 234.457 424.523 C 232.89 424.524 231.61 423.243 231.61 421.677 Z"/>
  <g transform="matrix(0.948825, 0, 0, 0.948825, 31.000006, 35.831497)">
    <path style="fill:#37C47A;" d="M277.94,406.657c0,1.65-1.35,3-3,3h-32.379c-1.65,0-3-1.35-3-3V290.325c0-1.65,1.35-3,3-3h32.379 c1.65,0,3,1.35,3,3V406.657z"/>
    <path style="fill:#37C47A;" d="M325.913,406.657c0,1.65-1.35,3-3,3h-32.379c-1.65,0-3-1.35-3-3V266.338c0-1.65,1.35-3,3-3h32.379 c1.65,0,3,1.35,3,3V406.657z"/>
  </g>
  <g transform="matrix(0.948825, 0, 0, 0.948825, 31.000006, 35.831497)">
    <path style="fill:#02AF8E;" d="M259.403,406.657V290.325c0-1.65,1.35-3,3-3H242.56c-1.65,0-3,1.35-3,3v116.331c0,1.65,1.35,3,3,3 h19.843C260.753,409.657,259.403,408.307,259.403,406.657z"/>
    <path style="fill:#02AF8E;" d="M307.377,406.657V266.338c0-1.65,1.35-3,3-3h-19.843c-1.65,0-3,1.35-3,3v140.318c0,1.65,1.35,3,3,3 h19.843C308.727,409.657,307.377,408.307,307.377,406.657z"/>
  </g>
  <g transform="matrix(0.948825, 0, 0, 0.948825, 31.000006, 35.831497)">
    <path style="fill:#69CDFF;" d="M373.886,406.657c0,1.65-1.35,3-3,3h-32.379c-1.65,0-3-1.35-3-3V235.156c0-1.65,1.35-3,3-3h32.379 c1.65,0,3,1.35,3,3V406.657z"/>
    <path style="fill:#69CDFF;" d="M421.859,406.657c0,1.65-1.35,3-3,3H386.48c-1.65,0-3-1.35-3-3V220.764c0-1.65,1.35-3,3-3h32.379 c1.65,0,3,1.35,3,3V406.657z"/>
  </g>
  <g transform="matrix(0.948825, 0, 0, 0.948825, 31.000006, 35.831497)">
    <path style="fill:#52BBEF;" d="M355.35,406.657V235.156c0-1.65,1.35-3,3-3h-19.843c-1.65,0-3,1.35-3,3v171.501c0,1.65,1.35,3,3,3 h19.843C356.699,409.657,355.35,408.307,355.35,406.657z"/>
    <path style="fill:#52BBEF;" d="M403.323,406.657V220.764c0-1.65,1.35-3,3-3H386.48c-1.65,0-3,1.35-3,3v185.893c0,1.65,1.35,3,3,3 h19.843C404.673,409.657,403.323,408.307,403.323,406.657z"/>
  </g>
  <path style="fill:#91E0E8;" d="M 156.484 281.579 C 88.731 281.579 33.609 226.457 33.609 158.705 C 33.609 90.952 88.731 35.831 156.484 35.831 C 224.237 35.831 279.359 90.952 279.359 158.705 C 279.359 226.457 224.237 281.579 156.484 281.579 Z"/>
  <circle style="fill:#5DC1D8;" cx="156.482" cy="158.704" r="96.78"/>
  <path style="fill:#28A5A5;" d="M 78.529 158.705 C 78.529 108.43 116.865 67.114 165.898 62.38 C 162.799 62.081 159.661 61.923 156.484 61.923 C 103.034 61.924 59.702 105.254 59.702 158.705 C 59.702 212.156 103.034 255.486 156.484 255.486 C 159.661 255.486 162.799 255.327 165.898 255.029 C 116.865 250.296 78.529 208.979 78.529 158.705 Z"/>
  <path style="fill:#A53535;" d="M 156.484 74.896 C 132.269 74.896 112.641 82.172 112.641 106.387 L 112.641 122.549 C 112.641 98.334 132.27 91.058 156.484 91.058 C 180.699 91.058 200.327 98.334 200.327 122.549 L 200.327 106.387 C 200.327 82.173 180.699 74.896 156.484 74.896 Z"/>
  <path style="fill:#FFFFFF;" d="M 200.645 197.299 L 170.115 197.299 L 170.115 202.581 C 170.115 210.097 164.001 216.212 156.484 216.212 C 148.967 216.212 142.853 210.097 142.853 202.581 L 142.853 197.299 L 112.323 197.299 C 103.453 197.299 96.263 204.489 96.263 213.359 L 96.263 234.467 C 112.792 247.622 133.718 255.487 156.484 255.487 C 179.25 255.487 200.176 247.622 216.705 234.467 L 216.705 213.359 C 216.705 204.488 209.515 197.299 200.645 197.299 Z"/>
  <path style="fill:#D9EAFC;" d="M 115.091 213.359 C 115.091 204.489 122.281 197.299 131.15 197.299 L 112.323 197.299 C 103.453 197.299 96.263 204.489 96.263 213.359 L 96.263 234.467 C 102.036 239.062 108.354 242.993 115.091 246.187 L 115.091 213.359 Z"/>
  <g transform="matrix(0.948825, 0, 0, 0.948825, 31.000006, 35.831497)">
    <path style="fill:#FFDD8D;" d="M132.252,166.756c-5.393,0-10.566-0.953-15.366-2.693v11.681c0,8.487,6.879,15.366,15.366,15.366 s15.366-6.879,15.366-15.366v-11.681C142.818,165.803,137.645,166.756,132.252,166.756z"/>
    <path style="fill:#FFDD8D;" d="M87.044,121.547V97.63c-7.409,1.804-12.915,8.465-12.915,16.428v4.897 c0,8.775,6.677,15.989,15.229,16.84C87.865,131.313,87.044,126.525,87.044,121.547z"/>
    <path style="fill:#FFDD8D;" d="M177.46,97.63v23.917c0,4.979-0.821,9.766-2.314,14.249c8.552-0.851,15.229-8.065,15.229-16.84 v-4.897C190.375,106.095,184.869,99.434,177.46,97.63z"/>
  </g>
  <path style="fill:#FFE2B8;" d="M 200.327 151.158 C 200.327 175.373 180.699 195.002 156.484 195.002 L 156.484 195.002 C 132.269 195.002 112.641 175.373 112.641 151.158 L 112.641 121.601 C 112.641 97.386 132.27 90.11 156.484 90.11 L 156.484 90.11 C 180.699 90.11 200.327 97.386 200.327 121.601 L 200.327 151.158 L 200.327 151.158 Z"/>
  <path style="fill:#FFC987;" d="M 125.301 151.158 L 125.301 121.601 C 125.301 99.537 141.601 91.539 162.815 90.293 C 160.746 90.171 158.635 90.11 156.484 90.11 C 132.269 90.11 112.641 97.386 112.641 121.601 L 112.641 151.158 C 112.641 175.373 132.27 195.002 156.484 195.002 C 158.635 195.002 160.746 194.84 162.815 194.541 C 141.6 191.472 125.301 173.222 125.301 151.158 Z"/>
  <g transform="matrix(0.948825, 0, 0, 0.948825, 31.000006, 35.831497)">
    <path style="fill:#A53535;" d="M109.537,122.111c-4.143,0-7.5-3.358-7.5-7.5V104.59c0-4.142,3.357-7.5,7.5-7.5s7.5,3.358,7.5,7.5 v10.021C117.037,118.753,113.68,122.111,109.537,122.111z"/>
    <path style="fill:#A53535;" d="M154.967,122.111c-4.143,0-7.5-3.358-7.5-7.5V104.59c0-4.142,3.357-7.5,7.5-7.5s7.5,3.358,7.5,7.5 v10.021C162.467,118.753,159.109,122.111,154.967,122.111z"/>
  </g>
  <g transform="matrix(0.948825, 0, 0, 0.948825, 31.000006, 35.831497)"/>
  <g transform="matrix(0.948825, 0, 0, 0.948825, 31.000006, 35.831497)"/>
  <g transform="matrix(0.948825, 0, 0, 0.948825, 31.000006, 35.831497)"/>
  <g transform="matrix(0.948825, 0, 0, 0.948825, 31.000006, 35.831497)"/>
  <g transform="matrix(0.948825, 0, 0, 0.948825, 31.000006, 35.831497)"/>
  <g transform="matrix(0.948825, 0, 0, 0.948825, 31.000006, 35.831497)"/>
  <g transform="matrix(0.948825, 0, 0, 0.948825, 31.000006, 35.831497)"/>
  <g transform="matrix(0.948825, 0, 0, 0.948825, 31.000006, 35.831497)"/>
  <g transform="matrix(0.948825, 0, 0, 0.948825, 31.000006, 35.831497)"/>
  <g transform="matrix(0.948825, 0, 0, 0.948825, 31.000006, 35.831497)"/>
  <g transform="matrix(0.948825, 0, 0, 0.948825, 31.000006, 35.831497)"/>
  <g transform="matrix(0.948825, 0, 0, 0.948825, 31.000006, 35.831497)"/>
  <g transform="matrix(0.948825, 0, 0, 0.948825, 31.000006, 35.831497)"/>
  <g transform="matrix(0.948825, 0, 0, 0.948825, 31.000006, 35.831497)"/>
  <g transform="matrix(0.948825, 0, 0, 0.948825, 31.000006, 35.831497)"/>
</svg>