<?xml version="1.0" encoding="utf-8"?>
<svg version="1.1" id="Capa_1" x="0px" y="0px" viewBox="0 0 512 512" style="enable-background:new 0 0 512 512;" xmlns="http://www.w3.org/2000/svg">
  <circle style="fill:#ec3237;" cx="250.5" cy="245" r="245"/>
  <path style="fill:#C3DDF4;" d="M 322.13 413.849 C 321.163 411.063 317.921 408.757 314.921 408.757 L 299.475 408.757 C 297.312 408.757 295.551 406.997 295.551 404.833 L 295.551 377.135 C 295.551 374.972 297.311 373.211 299.475 373.211 L 314.918 373.211 C 317.92 373.211 321.163 370.904 322.149 368.068 L 325.071 361.049 C 326.38 358.407 325.726 354.491 323.592 352.374 L 312.694 341.56 C 311.955 340.826 311.548 339.846 311.548 338.801 C 311.548 337.755 311.955 336.776 312.694 336.041 L 332.459 316.431 C 333.2 315.696 334.191 315.291 335.249 315.291 C 336.307 315.291 337.299 315.696 338.04 316.431 L 348.935 327.244 C 350.285 328.584 352.373 329.384 354.52 329.384 C 355.673 329.384 356.771 329.145 357.695 328.696 L 364.81 325.782 C 367.603 324.827 369.914 321.592 369.914 318.589 L 369.914 303.338 C 369.914 301.174 371.674 299.414 373.838 299.414 L 401.822 299.414 C 403.987 299.414 405.747 301.175 405.747 303.338 L 405.747 318.589 C 405.747 321.592 408.058 324.827 410.9 325.8 L 418.021 328.72 C 418.894 329.146 419.989 329.384 421.141 329.384 C 423.289 329.384 425.377 328.584 426.727 327.244 L 432.135 321.878 L 432.135 294.753 L 414.5 294.753 C 413.353 294.753 411.844 293.882 411.271 292.889 L 396.949 268.082 C 396.375 267.089 396.375 265.348 396.948 264.355 L 411.271 239.548 C 411.844 238.556 413.353 237.684 414.5 237.684 L 432.137 237.684 L 432.137 193.887 L 422.234 193.887 C 422.242 194.589 422.101 195.296 421.806 195.805 L 410.741 214.967 C 410.168 215.96 408.66 216.831 407.513 216.831 L 401.04 216.831 L 401.04 233.423 C 401.04 234.403 400.243 235.2 399.264 235.2 L 107.849 235.2 C 106.869 235.2 106.072 234.403 106.072 233.423 L 106.072 193.887 L 74.977 193.887 L 74.977 370.691 C 75.774 401.012 74.209 422.443 122.467 419.998 L 324.687 419.998 L 322.13 413.849 Z"/>
  <g transform="matrix(0.88845, 0, 0, 0.88845, 31, 28.556503)">
    <path style="fill:#EEF6FF;" d="M297.768,392.345c0-2.435,1.981-4.417,4.417-4.417h17.381c3.379,0,7.03-2.597,8.139-5.788 l2.614-6.278H86.498c-1.65,0-3,1.35-3,3v19.719c0,1.65,1.35,3,3,3h211.27V392.345z"/>
    <path style="fill:#EEF6FF;" d="M450.125,144.523l-10.007-17.333c-0.646-1.117-0.646-3.078-0.001-4.195l10.008-17.334 c0.29-0.501,0.795-0.969,1.377-1.339V89H49.498v98.089h35v-67.715c0-1.103,0.897-2,2-2h328.004c1.103,0,2,0.897,2,2v41.012h7.285 c1.29,0,2.989,0.98,3.634,2.098l12.453,21.569c0.457,0.79,0.583,1.999,0.395,3.036h11.233v-41.227 C450.921,145.492,450.415,145.024,450.125,144.523z"/>
  </g>
  <path style="fill:#293D7C;" d="M 423.253 58.653 L 83.861 58.653 C 78.975 58.653 74.977 62.651 74.977 67.538 L 74.977 108.518 L 432.137 108.518 L 432.137 67.538 C 432.137 62.651 428.139 58.653 423.253 58.653 Z"/>
  <path style="fill:#1A2B63;" d="M 101.49 58.653 L 83.861 58.653 C 78.975 58.653 74.977 62.651 74.977 67.538 L 74.977 108.518 L 92.605 108.518 L 92.605 67.538 C 92.605 62.651 96.603 58.653 101.49 58.653 Z"/>
  <path style="fill:#E26693;" d="M 95.789 90.702 C 93.82 90.702 91.9 89.906 90.508 88.524 C 89.125 87.132 88.33 85.212 88.33 83.243 C 88.33 81.283 89.126 79.364 90.508 77.971 C 91.9 76.579 93.821 75.783 95.789 75.783 C 97.748 75.783 99.678 76.579 101.061 77.971 C 102.453 79.363 103.25 81.283 103.25 83.243 C 103.25 85.213 102.453 87.132 101.061 88.524 C 99.678 89.906 97.748 90.702 95.789 90.702 Z"/>
  <path style="fill:#FFAF10;" d="M 120.252 90.702 C 118.292 90.702 116.362 89.906 114.979 88.513 C 113.588 87.131 112.792 85.212 112.792 83.242 C 112.792 81.282 113.588 79.363 114.979 77.97 C 116.372 76.578 118.292 75.782 120.252 75.782 C 122.221 75.782 124.14 76.578 125.534 77.97 C 126.916 79.362 127.711 81.282 127.711 83.242 C 127.711 85.201 126.916 87.131 125.534 88.513 C 124.14 89.906 122.221 90.702 120.252 90.702 Z"/>
  <path style="fill:#37C47A;" d="M 144.725 90.702 C 142.755 90.702 140.836 89.906 139.453 88.524 C 138.061 87.132 137.265 85.212 137.265 83.243 C 137.265 81.283 138.061 79.364 139.453 77.971 C 140.836 76.579 142.755 75.783 144.725 75.783 C 146.684 75.783 148.614 76.579 149.996 77.971 C 151.389 79.363 152.186 81.283 152.186 83.243 C 152.186 85.213 151.389 87.132 149.996 88.524 C 148.604 89.906 146.684 90.702 144.725 90.702 Z"/>
  <path style="fill:#02AF8E;" d="M 385.386 216.832 C 384.24 216.832 382.73 215.961 382.157 214.968 L 371.094 195.806 C 370.52 194.814 370.52 193.071 371.094 192.079 L 382.158 172.916 C 382.731 171.924 384.24 171.052 385.387 171.052 L 401.931 171.052 L 401.931 134.615 C 401.931 133.149 400.731 131.95 399.265 131.95 L 107.849 131.95 C 106.383 131.95 105.184 133.149 105.184 134.615 L 105.184 233.424 C 105.184 234.89 106.383 236.089 107.849 236.089 L 399.264 236.089 C 400.73 236.089 401.93 234.89 401.93 233.424 L 401.93 216.832 L 385.386 216.832 L 385.386 216.832 Z"/>
  <path style="fill:#0F9390;" d="M 122.812 233.424 L 122.812 134.615 C 122.812 133.149 124.012 131.95 125.478 131.95 L 107.849 131.95 C 106.383 131.95 105.184 133.149 105.184 134.615 L 105.184 233.424 C 105.184 234.89 106.383 236.089 107.849 236.089 L 125.478 236.089 C 124.012 236.089 122.812 234.89 122.812 233.424 Z"/>
  <g transform="matrix(0.88845, 0, 0, 0.88845, 31, 28.556503)">
    <path style="fill:#EEF6FF;" d="M184,294.973c0,1.65-1.35,3-3,3H86.498c-1.65,0-3-1.35-3-3v-43.6c0-1.65,1.35-3,3-3H181 c1.65,0,3,1.35,3,3V294.973z"/>
    <path style="fill:#EEF6FF;" d="M264.427,358.592c0,1.65-1.35,3-3,3h-58.482c-1.65,0-3-1.35-3-3v-107.22c0-1.65,1.35-3,3-3h58.482 c1.65,0,3,1.35,3,3V358.592z"/>
    <path style="fill:#EEF6FF;" d="M317.063,352.303c-0.832-0.826-1.29-1.929-1.29-3.105c0-1.177,0.458-2.279,1.29-3.107l22.247-22.072 c0.472-0.468,1.04-0.802,1.655-1.017v-71.63c0-1.65-1.35-3-3-3h-58.482c-1.65,0-3,1.35-3,3v107.22c0,1.65,1.35,3,3,3h46.941 L317.063,352.303z"/>
    <path style="fill:#EEF6FF;" d="M357.855,336.19c1.519,1.508,3.869,2.408,6.286,2.408c1.297,0,2.533-0.269,3.573-0.774l8.009-3.28 c3.143-1.075,5.745-4.716,5.745-8.096v-17.166c0-2.435,1.981-4.416,4.416-4.416h31.498c0.041,0,0.079,0.011,0.12,0.012V279.31 l-5.606-9.71c-0.646-1.118-0.646-3.078-0.001-4.195l5.607-9.71v-4.322c0-1.65-1.35-3-3-3H356.02c-1.65,0-3,1.35-3,3v80.018 L357.855,336.19z"/>
    <path style="fill:#EEF6FF;" d="M184,358.592c0,1.65-1.35,3-3,3H86.498c-1.65,0-3-1.35-3-3v-43.6c0-1.65,1.35-3,3-3H181 c1.65,0,3,1.35,3,3V358.592z"/>
  </g>
  <g transform="matrix(0.88845, 0, 0, 0.88845, 31, 28.556503)">
    <path style="fill:#D9EAFC;" d="M103.34,398.58v-19.719c0-1.65,1.35-3,3-3H86.498c-1.65,0-3,1.35-3,3v19.719c0,1.65,1.35,3,3,3 h19.842C104.69,401.58,103.34,400.23,103.34,398.58z"/>
    <path style="fill:#D9EAFC;" d="M103.34,294.973v-43.6c0-1.65,1.35-3,3-3H86.498c-1.65,0-3,1.35-3,3v43.6c0,1.65,1.35,3,3,3h19.842 C104.69,297.973,103.34,296.623,103.34,294.973z"/>
    <path style="fill:#D9EAFC;" d="M219.787,358.592v-107.22c0-1.65,1.35-3,3-3h-19.842c-1.65,0-3,1.35-3,3v107.22c0,1.65,1.35,3,3,3 h19.842C221.137,361.592,219.787,360.242,219.787,358.592z"/>
    <path style="fill:#D9EAFC;" d="M296.325,358.592v-107.22c0-1.65,1.35-3,3-3h-19.842c-1.65,0-3,1.35-3,3v107.22c0,1.65,1.35,3,3,3 h19.842C297.675,361.592,296.325,360.242,296.325,358.592z"/>
    <path style="fill:#D9EAFC;" d="M357.855,336.19c1.519,1.508,3.869,2.408,6.286,2.408c1.297,0,2.533-0.269,3.573-0.774l5.148-2.108 v-84.343c0-1.65,1.35-3,3-3H356.02c-1.65,0-3,1.35-3,3v80.018L357.855,336.19z"/>
    <path style="fill:#D9EAFC;" d="M103.34,358.592v-43.6c0-1.65,1.35-3,3-3H86.498c-1.65,0-3,1.35-3,3v43.6c0,1.65,1.35,3,3,3h19.842 C104.69,361.592,103.34,360.242,103.34,358.592z"/>
  </g>
  <path style="fill:#AEC1ED;" d="M 409.782 89.109 L 370.481 89.109 C 366.801 89.109 363.818 86.127 363.818 82.446 C 363.818 78.765 366.801 75.783 370.481 75.783 L 409.782 75.783 C 413.462 75.783 416.445 78.765 416.445 82.446 C 416.445 86.127 413.462 89.109 409.782 89.109 Z"/>
  <path style="fill:#445EA0;" d="M 369.027 478.632 C 369.027 481.277 371.192 483.444 373.839 483.444 L 401.823 483.444 C 404.47 483.444 406.636 481.277 406.636 478.632 L 406.636 463.382 C 406.636 460.736 408.685 457.869 411.188 457.01 L 418.36 454.072 C 420.741 452.913 424.225 453.491 426.103 455.356 L 437 466.17 C 438.878 468.033 441.952 468.033 443.831 466.17 L 463.593 446.558 C 465.471 444.694 465.471 441.644 463.593 439.778 L 452.696 428.963 C 450.818 427.099 450.239 423.631 451.412 421.258 L 454.354 414.19 C 455.223 411.691 458.098 409.644 460.745 409.645 L 476.187 409.645 C 478.834 409.645 481 407.481 481 404.833 L 481 377.135 C 481 374.488 478.834 372.322 476.187 372.322 L 460.745 372.322 C 458.098 372.322 455.223 370.277 454.354 367.777 L 451.412 360.708 C 450.24 358.335 450.818 354.869 452.696 353.004 L 463.592 342.191 C 465.471 340.328 465.471 337.277 463.592 335.412 L 443.83 315.8 C 441.952 313.936 438.878 313.936 436.999 315.8 L 426.101 326.613 C 424.223 328.478 420.738 329.056 418.358 327.898 L 411.187 324.958 C 408.683 324.101 406.634 321.235 406.634 318.588 L 406.634 303.337 C 406.634 300.69 404.468 298.525 401.821 298.525 L 373.837 298.525 C 371.19 298.525 369.025 300.691 369.025 303.337 L 369.025 318.588 C 369.025 321.235 366.975 324.101 364.472 324.958 L 357.304 327.896 C 354.924 329.056 351.439 328.478 349.56 326.613 L 338.663 315.8 C 336.784 313.936 333.71 313.936 331.831 315.8 L 312.066 335.411 C 310.187 337.277 310.187 340.325 312.066 342.191 L 322.963 353.005 C 324.842 354.869 325.42 358.336 324.248 360.708 L 321.306 367.777 C 320.438 370.278 317.562 372.322 314.915 372.322 L 299.473 372.322 C 296.827 372.322 294.66 374.488 294.66 377.135 L 294.66 404.833 C 294.66 407.48 296.826 409.645 299.473 409.645 L 314.915 409.645 C 317.562 409.644 320.438 411.691 321.306 414.19 L 324.248 421.26 C 325.422 423.631 324.843 427.099 322.965 428.963 L 312.066 439.778 C 310.187 441.644 310.187 444.694 312.066 446.558 L 331.831 466.17 C 333.71 468.033 336.784 468.033 338.662 466.169 L 349.557 455.354 C 351.436 453.49 354.921 452.913 357.3 454.071 L 364.471 457.01 C 366.975 457.869 369.024 460.735 369.024 463.382 L 369.024 478.632 L 369.027 478.632 Z"/>
  <ellipse style="fill:#FF9518;" cx="387.828" cy="390.982" rx="44.84" ry="44.502"/>
  <path style="fill:#EF8318;" d="M 356.633 390.986 C 356.634 368.709 373.124 350.257 394.652 346.997 C 392.429 346.661 390.152 346.487 387.833 346.487 C 363.067 346.487 342.994 366.408 342.993 390.986 C 342.993 415.562 363.067 435.486 387.833 435.486 C 390.152 435.486 392.43 435.312 394.652 434.974 C 373.124 431.713 356.633 413.261 356.633 390.986 Z"/>
  <path style="fill:#293D7C;" d="M 387.832 442.704 C 359.127 442.704 335.774 419.504 335.774 390.986 C 335.775 362.469 359.128 339.268 387.832 339.268 C 416.537 339.268 439.891 362.469 439.891 390.985 C 439.89 419.504 416.537 442.704 387.832 442.704 Z M 387.832 353.705 C 367.088 353.705 350.211 370.428 350.21 390.986 C 350.21 411.543 367.087 428.268 387.832 428.268 C 408.577 428.268 425.453 411.543 425.454 390.985 C 425.454 370.428 408.576 353.705 387.832 353.705 Z"/>
  <ellipse style="fill:#C3DDF4;" cx="387.828" cy="390.982" rx="18.954" ry="18.808"/>
  <path style="fill:#AEC1ED;" d="M 382.517 390.986 C 382.517 382.985 387.557 376.168 394.652 373.45 C 392.534 372.637 390.24 372.173 387.832 372.173 C 377.363 372.173 368.877 380.595 368.877 390.986 C 368.877 401.374 377.362 409.797 387.832 409.797 C 390.24 409.797 392.534 409.334 394.652 408.521 C 387.557 405.801 382.517 398.986 382.517 390.986 Z"/>
  <path style="fill:#DB722C;" d="M 387.832 417.014 C 373.4 417.014 361.658 405.337 361.658 390.985 C 361.658 376.631 373.4 364.954 387.832 364.954 C 402.264 364.954 414.006 376.631 414.006 390.984 C 414.004 405.338 402.262 417.014 387.832 417.014 Z M 387.832 379.392 C 381.36 379.392 376.095 384.594 376.095 390.986 C 376.095 397.377 381.36 402.579 387.832 402.579 C 394.303 402.579 399.568 397.378 399.568 390.984 C 399.568 384.593 394.303 379.392 387.832 379.392 Z"/>
  <path style="fill:#EF8318;" d="M 385.386 217.72 C 383.92 217.72 382.121 216.682 381.388 215.412 L 370.325 196.25 C 369.592 194.981 369.592 192.903 370.325 191.635 L 381.388 172.472 C 382.121 171.202 383.92 170.164 385.386 170.164 L 407.514 170.164 C 408.98 170.164 410.779 171.202 411.512 172.472 L 422.576 191.635 C 423.309 192.904 423.309 194.982 422.576 196.25 L 411.512 215.412 C 410.779 216.682 408.98 217.72 407.514 217.72 L 385.386 217.72 L 385.386 217.72 Z"/>
  <g transform="matrix(0.88845, 0, 0, 0.88845, 31, 28.556503)">
    <path style="fill:#FFD00D;" d="M453.759,147.621c-1.65,0-3.675-1.169-4.5-2.598l-10.007-17.333c-0.825-1.429-0.825-3.767,0-5.195 l10.007-17.334c0.825-1.429,2.85-2.598,4.5-2.598h20.015c1.65,0,3.675,1.169,4.5,2.598l10.007,17.334 c0.825,1.429,0.825,3.767,0,5.195l-10.007,17.333c-0.825,1.429-2.85,2.598-4.5,2.598H453.759z"/>
    <path style="fill:#FFD00D;" d="M431.65,300.618c-1.65,0-3.675-1.169-4.5-2.598l-16.12-27.92c-0.825-1.429-0.825-3.767,0-5.195 l16.121-27.922c0.825-1.429,2.85-2.598,4.5-2.598h32.241c1.65,0,3.675,1.169,4.5,2.598l16.121,27.922 c0.825,1.429,0.825,3.767,0,5.195l-16.121,27.921c-0.825,1.429-2.85,2.598-4.5,2.598L431.65,300.618L431.65,300.618z"/>
  </g>
  <path style="fill:#DB722C;" d="M 399.017 215.412 L 387.954 196.25 C 387.221 194.981 387.221 192.903 387.954 191.635 L 399.017 172.472 C 399.75 171.202 401.55 170.164 403.015 170.164 L 385.387 170.164 C 383.921 170.164 382.122 171.202 381.389 172.472 L 370.326 191.635 C 369.593 192.904 369.593 194.982 370.326 196.25 L 381.389 215.412 C 382.122 216.682 383.921 217.72 385.387 217.72 L 403.015 217.72 C 401.55 217.72 399.75 216.682 399.017 215.412 Z"/>
  <g transform="matrix(0.88845, 0, 0, 0.88845, 31, 28.556503)">
    <path style="fill:#FFAF10;" d="M469.102,145.023l-10.007-17.333c-0.825-1.429-0.825-3.767,0-5.195l10.007-17.334 c0.825-1.429,2.85-2.598,4.5-2.598H453.76c-1.65,0-3.675,1.169-4.5,2.598l-10.007,17.334c-0.825,1.429-0.825,3.767,0,5.195 l10.007,17.333c0.825,1.429,2.85,2.598,4.5,2.598h19.842C471.952,147.621,469.926,146.452,469.102,145.023z"/>
    <path style="fill:#FFAF10;" d="M446.993,298.021L430.872,270.1c-0.825-1.429-0.825-3.767,0-5.195l16.121-27.922 c0.825-1.429,2.85-2.598,4.5-2.598H431.65c-1.65,0-3.675,1.169-4.5,2.598l-16.121,27.922c-0.825,1.429-0.825,3.767,0,5.195 l16.121,27.921c0.825,1.429,2.85,2.598,4.5,2.598h19.842C449.843,300.618,447.818,299.449,446.993,298.021z"/>
  </g>
  <g transform="matrix(0.88845, 0, 0, 0.88845, 31, 28.556503)"/>
  <g transform="matrix(0.88845, 0, 0, 0.88845, 31, 28.556503)"/>
  <g transform="matrix(0.88845, 0, 0, 0.88845, 31, 28.556503)"/>
  <g transform="matrix(0.88845, 0, 0, 0.88845, 31, 28.556503)"/>
  <g transform="matrix(0.88845, 0, 0, 0.88845, 31, 28.556503)"/>
  <g transform="matrix(0.88845, 0, 0, 0.88845, 31, 28.556503)"/>
  <g transform="matrix(0.88845, 0, 0, 0.88845, 31, 28.556503)"/>
  <g transform="matrix(0.88845, 0, 0, 0.88845, 31, 28.556503)"/>
  <g transform="matrix(0.88845, 0, 0, 0.88845, 31, 28.556503)"/>
  <g transform="matrix(0.88845, 0, 0, 0.88845, 31, 28.556503)"/>
  <g transform="matrix(0.88845, 0, 0, 0.88845, 31, 28.556503)"/>
  <g transform="matrix(0.88845, 0, 0, 0.88845, 31, 28.556503)"/>
  <g transform="matrix(0.88845, 0, 0, 0.88845, 31, 28.556503)"/>
  <g transform="matrix(0.88845, 0, 0, 0.88845, 31, 28.556503)"/>
  <g transform="matrix(0.88845, 0, 0, 0.88845, 31, 28.556503)"/>
</svg>