<?xml version="1.0" encoding="utf-8"?>
<svg version="1.1" id="Capa_1" x="0px" y="0px" viewBox="0 0 512 512" style="enable-background:new 0 0 512 512;" xmlns="http://www.w3.org/2000/svg">
  <circle style="fill: rgb(236, 50, 55);" cx="267" cy="256" r="245"/>
  <rect x="194.231" y="370.488" style="fill:#445EA0;" width="69.179" height="36.237"/>
  <rect x="194.231" y="370.488" style="fill:#2E4C89;" width="17.44" height="36.237"/>
  <path style="fill:#293D7C;" d="M 309.487 405.848 L 143.114 405.848 C 140.647 405.848 138.629 407.867 138.629 410.333 L 138.629 432.807 C 138.629 435.274 140.648 437.291 143.114 437.291 L 309.487 437.291 L 309.487 405.848 L 309.487 405.848 Z"/>
  <path style="fill:#1A2B63;" d="M 156.069 432.806 L 156.069 410.332 C 156.069 407.865 158.087 405.847 160.553 405.847 L 143.114 405.847 C 140.647 405.847 138.629 407.865 138.629 410.332 L 138.629 432.806 C 138.629 435.273 140.648 437.291 143.114 437.291 L 160.552 437.291 C 158.087 437.291 156.069 435.273 156.069 432.806 Z"/>
  <path style="fill:#293D7C;" d="M 422.16 107.197 L 35.484 107.197 C 33.019 107.197 31 109.214 31 111.681 L 31 366.883 C 31 369.351 33.019 371.367 35.484 371.367 L 309.487 371.367 L 309.487 237.102 C 309.487 233.711 312.246 230.951 315.639 230.951 L 426.644 230.951 L 426.644 111.681 C 426.644 109.214 424.627 107.197 422.16 107.197 Z"/>
  <path style="fill:#FFFFFF;" d="M 50.684 326.528 C 50.684 328.009 51.894 329.217 53.375 329.217 L 309.487 329.217 L 309.487 237.102 C 309.487 233.711 312.246 230.951 315.639 230.951 L 406.961 230.951 L 406.961 151.173 L 50.684 151.173 L 50.684 326.528 Z"/>
  <path style="fill:#D9EAFC;" d="M 68.124 326.528 L 68.124 151.173 L 50.683 151.173 L 50.683 326.528 C 50.683 328.009 51.894 329.217 53.375 329.217 L 70.814 329.217 C 69.335 329.217 68.124 328.008 68.124 326.528 Z"/>
  <circle style="fill:#445EA0;" cx="228.824" cy="350.211" r="12.106"/>
  <path style="fill:#C3DDF4;" d="M 309.487 251.497 L 262.532 251.497 C 261.082 251.497 259.896 252.684 259.896 254.135 L 259.896 306.551 C 259.896 308.001 261.082 309.188 262.532 309.188 L 309.487 309.188 L 309.487 251.497 Z"/>
  <path style="fill:#AEC1ED;" d="M 277.334 306.551 L 277.334 254.135 C 277.334 252.684 278.521 251.497 279.971 251.497 L 262.532 251.497 C 261.082 251.497 259.896 252.684 259.896 254.135 L 259.896 306.551 C 259.896 308.001 261.082 309.188 262.532 309.188 L 279.971 309.188 C 278.521 309.188 277.334 308.001 277.334 306.551 Z"/>
  <path style="fill:#C3DDF4;" d="M 315.639 230.951 L 356.611 230.951 L 356.611 173.486 C 356.611 171.069 354.635 169.091 352.217 169.091 L 105.427 169.091 C 103.011 169.091 101.033 171.069 101.033 173.486 L 101.033 231.955 C 101.033 234.372 103.011 236.35 105.427 236.35 L 309.538 236.35 C 309.911 233.313 312.503 230.951 315.639 230.951 Z"/>
  <path style="fill:#AEC1ED;" d="M 118.472 231.954 L 118.472 173.485 C 118.472 171.068 120.449 169.09 122.866 169.09 L 105.427 169.09 C 103.011 169.09 101.033 171.068 101.033 173.485 L 101.033 231.954 C 101.033 234.371 103.011 236.349 105.427 236.349 L 122.866 236.349 C 120.449 236.349 118.472 234.371 118.472 231.954 Z"/>
  <path style="fill:#FFAF10;" d="M 404.271 130.065 L 53.375 130.065 C 51.894 130.065 50.684 131.276 50.684 132.756 L 50.684 152.051 L 406.961 152.051 L 406.961 132.756 C 406.961 131.276 405.749 130.065 404.271 130.065 Z"/>
  <path style="fill:#FF9518;" d="M 70.814 130.065 L 53.375 130.065 C 51.894 130.065 50.683 131.276 50.683 132.756 L 50.683 152.051 L 68.123 152.051 L 68.123 132.756 C 68.124 131.276 69.335 130.065 70.814 130.065 Z"/>
  <g transform="matrix(0.878907, 0, 0, 0.878907, 31.000389, 55.372993)">
    <path style="fill:#5DC1D8;" d="M171.504,238.979h-84.17c-4.142,0-7.5-3.357-7.5-7.5s3.358-7.5,7.5-7.5h84.17 c4.142,0,7.5,3.357,7.5,7.5S175.646,238.979,171.504,238.979z"/>
    <path style="fill:#5DC1D8;" d="M171.504,263.466h-84.17c-4.142,0-7.5-3.357-7.5-7.5s3.358-7.5,7.5-7.5h84.17 c4.142,0,7.5,3.357,7.5,7.5C179.004,260.108,175.646,263.466,171.504,263.466z"/>
    <path style="fill:#5DC1D8;" d="M171.504,287.953h-84.17c-4.142,0-7.5-3.357-7.5-7.5s3.358-7.5,7.5-7.5h84.17 c4.142,0,7.5,3.357,7.5,7.5S175.646,287.953,171.504,287.953z"/>
    <path style="fill:#5DC1D8;" d="M237.56,238.979h-43.326c-4.142,0-7.5-3.357-7.5-7.5s3.358-7.5,7.5-7.5h43.326 c4.142,0,7.5,3.357,7.5,7.5S241.702,238.979,237.56,238.979z"/>
    <path style="fill:#5DC1D8;" d="M237.56,263.466h-43.326c-4.142,0-7.5-3.357-7.5-7.5s3.358-7.5,7.5-7.5h43.326 c4.142,0,7.5,3.357,7.5,7.5C245.06,260.108,241.702,263.466,237.56,263.466z"/>
    <path style="fill:#5DC1D8;" d="M237.56,287.953h-43.326c-4.142,0-7.5-3.357-7.5-7.5s3.358-7.5,7.5-7.5h43.326 c4.142,0,7.5,3.357,7.5,7.5S241.702,287.953,237.56,287.953z"/>
  </g>
  <path style="fill:#445EA0;" d="M 473.969 230.072 C 477.836 230.072 481 233.235 481 237.102 L 481 449.595 C 481 453.462 477.836 456.627 473.969 456.627 L 315.639 456.627 C 311.772 456.627 308.608 453.462 308.608 449.595 L 308.608 237.102 C 308.608 233.235 311.772 230.072 315.639 230.072 L 473.969 230.072 L 473.969 230.072 Z"/>
  <path style="fill:#FFFFFF;" d="M 327.689 429.019 C 325.273 429.019 323.295 427.04 323.295 424.624 L 323.295 248.012 C 323.295 245.594 325.273 243.618 327.689 243.618 L 461.919 243.618 C 464.336 243.618 466.313 245.594 466.313 248.012 L 466.313 424.624 C 466.313 427.04 464.336 429.019 461.919 429.019 L 327.689 429.019 Z"/>
  <path style="fill:#D9EAFC;" d="M 340.735 424.624 L 340.735 248.012 C 340.735 245.594 342.712 243.618 345.129 243.618 L 327.689 243.618 C 325.273 243.618 323.295 245.594 323.295 248.012 L 323.295 424.624 C 323.295 427.04 325.273 429.019 327.689 429.019 L 345.129 429.019 C 342.712 429.019 340.735 427.04 340.735 424.624 Z"/>
  <path style="fill:#445EA0;" d="M 386.577 446.597 C 384.16 446.597 382.182 444.619 382.182 442.202 L 382.182 440.493 C 382.182 438.075 384.16 436.098 386.577 436.098 L 403.032 436.098 C 405.449 436.098 407.427 438.075 407.427 440.493 L 407.427 442.202 C 407.427 444.619 405.449 446.597 403.032 446.597 L 386.577 446.597 Z"/>
  <path style="fill:#FFAF10;" d="M 466.313 260.574 L 466.313 248.012 C 466.313 245.594 464.336 243.618 461.919 243.618 L 327.689 243.618 C 325.273 243.618 323.295 245.594 323.295 248.012 L 323.295 260.574 L 466.313 260.574 L 466.313 260.574 Z"/>
  <path style="fill:#FF9518;" d="M 345.129 243.618 L 327.689 243.618 C 325.273 243.618 323.295 245.594 323.295 248.012 L 323.295 260.574 L 340.735 260.574 L 340.735 248.012 C 340.735 245.594 342.712 243.618 345.129 243.618 Z"/>
  <g transform="matrix(0.878907, 0, 0, 0.878907, 31.000389, 55.372993)">
    <path style="fill:#5DC1D8;" d="M448.013,324.933h-68.169c-4.142,0-7.5-3.357-7.5-7.5s3.358-7.5,7.5-7.5h68.169 c4.142,0,7.5,3.357,7.5,7.5C455.513,321.575,452.155,324.933,448.013,324.933z"/>
    <path style="fill:#5DC1D8;" d="M448.013,348.06h-68.169c-4.142,0-7.5-3.357-7.5-7.5c0-4.142,3.358-7.5,7.5-7.5h68.169 c4.142,0,7.5,3.358,7.5,7.5C455.513,344.703,452.155,348.06,448.013,348.06z"/>
    <path style="fill:#5DC1D8;" d="M448.013,371.185h-68.169c-4.142,0-7.5-3.357-7.5-7.5c0-4.142,3.358-7.5,7.5-7.5h68.169 c4.142,0,7.5,3.358,7.5,7.5C455.513,367.828,452.155,371.185,448.013,371.185z"/>
  </g>
  <path style="fill:#C3DDF4;" d="M 452.661 312.239 C 452.661 314.657 450.683 316.634 448.267 316.634 L 341.342 316.634 C 338.925 316.634 336.949 314.657 336.949 312.239 L 336.949 275.99 C 336.949 273.574 338.925 271.595 341.342 271.595 L 448.267 271.595 C 450.683 271.595 452.661 273.574 452.661 275.99 L 452.661 312.239 Z"/>
  <path style="fill:#AEC1ED;" d="M 354.388 312.239 L 354.388 275.99 C 354.388 273.574 356.365 271.595 358.782 271.595 L 341.342 271.595 C 338.925 271.595 336.949 273.574 336.949 275.99 L 336.949 312.239 C 336.949 314.657 338.925 316.634 341.342 316.634 L 358.782 316.634 C 356.365 316.634 354.388 314.657 354.388 312.239 Z"/>
  <path style="fill:#C3DDF4;" d="M 436.841 415.212 C 436.841 417.628 434.864 419.606 432.447 419.606 L 357.162 419.606 C 354.745 419.606 352.768 417.628 352.768 415.212 L 352.768 400.348 C 352.768 397.932 354.745 395.954 357.162 395.954 L 432.447 395.954 C 434.864 395.954 436.841 397.932 436.841 400.348 L 436.841 415.212 L 436.841 415.212 Z"/>
  <path style="fill:#AEC1ED;" d="M 370.207 415.212 L 370.207 400.348 C 370.207 397.932 372.185 395.954 374.602 395.954 L 357.162 395.954 C 354.745 395.954 352.768 397.932 352.768 400.348 L 352.768 415.212 C 352.768 417.628 354.745 419.606 357.162 419.606 L 374.602 419.606 C 372.185 419.606 370.207 417.628 370.207 415.212 Z"/>
  <g transform="matrix(0.878907, 0, 0, 0.878907, 31.000389, 55.372993)"/>
  <g transform="matrix(0.878907, 0, 0, 0.878907, 31.000389, 55.372993)"/>
  <g transform="matrix(0.878907, 0, 0, 0.878907, 31.000389, 55.372993)"/>
  <g transform="matrix(0.878907, 0, 0, 0.878907, 31.000389, 55.372993)"/>
  <g transform="matrix(0.878907, 0, 0, 0.878907, 31.000389, 55.372993)"/>
  <g transform="matrix(0.878907, 0, 0, 0.878907, 31.000389, 55.372993)"/>
  <g transform="matrix(0.878907, 0, 0, 0.878907, 31.000389, 55.372993)"/>
  <g transform="matrix(0.878907, 0, 0, 0.878907, 31.000389, 55.372993)"/>
  <g transform="matrix(0.878907, 0, 0, 0.878907, 31.000389, 55.372993)"/>
  <g transform="matrix(0.878907, 0, 0, 0.878907, 31.000389, 55.372993)"/>
  <g transform="matrix(0.878907, 0, 0, 0.878907, 31.000389, 55.372993)"/>
  <g transform="matrix(0.878907, 0, 0, 0.878907, 31.000389, 55.372993)"/>
  <g transform="matrix(0.878907, 0, 0, 0.878907, 31.000389, 55.372993)"/>
  <g transform="matrix(0.878907, 0, 0, 0.878907, 31.000389, 55.372993)"/>
  <g transform="matrix(0.878907, 0, 0, 0.878907, 31.000389, 55.372993)"/>
</svg>